<svg viewBox="0, 0, 978, 540" style="overflow: hidden; position: relative;" xmlns="http://www.w3.org/2000/svg" xmlns:xlink="http://www.w3.org/1999/xlink" width="100%" version="1.1" height="100%"><rect transform="matrix(1,0,0,1,0,0)" x="0" y="0" width="100%" height="100%" rx="0" ry="0" fill="white" stroke="none"></rect><rect transform="matrix(1.129,0,0,1.1211,325.8202,-161.1452)" x="352" y="321" width="120" height="120" rx="0" ry="0" fill="#ffff99" stroke="#000" stroke-width="0" opacity="1"></rect><text transform="matrix(0.9947,0,0,0.9954,400.0638,-106.464)" style="text-anchor: middle; font: normal normal normal 15px/normal normal normal normal 15px/normal;" x="392" y="336" text-anchor="middle" font-family="&quot;Arial&quot;" font-size="15px" stroke="none" fill="#000000" stroke-width="1" opacity="1" font="normal normal normal 15px/normal"><tspan dy="5.4519230769230775">내일 까지 프로젝트</tspan></text><path transform="matrix(0.9947,0,0,0.9954,339.6476,-4.5566)" fill="none" stroke="#212b2c" d="M150,84L150,84L150,83L149,82L145,77L140,73L138,71L135,68L125,61L110,49L105,45L103,43L103,42L103,42L103,42L102,43L102,46L102,52L102,58L102,66L102,85L100,119L98,133L96,147L97,150L96,152" stroke-width="5" opacity="1"></path><path transform="matrix(0.9947,0,0,0.9954,339.5739,-4.4926)" fill="none" stroke="#212b2c" d="M77,113L77,113L78,113L78,113L79,112L80,112L82,112L84,112L88,111L90,110L91,110L91,110L92,110L96,110L102,110L107,110L109,110L111,109L111,109L112,109L116,109L124,109L130,109L136,109L141,109" stroke-width="5" opacity="1"></path><path transform="matrix(0.9947,0,0,0.9954,339.8898,-4.5611)" fill="none" stroke="#212b2c" d="M174,44L174,43L174,44L173,45L173,48L172,53L171,61L171,67L169,91L168,103L167,122L166,129L166,132L165,135L165,137L165,138L164,139L164,141L164,142L164,147L164,148L164,149" stroke-width="5" opacity="1"></path><path transform="matrix(0.9947,0,0,0.9954,340.0424,-4.4789)" fill="none" stroke="#212b2c" d="M197,96L197,96L197,96L196,96L195,96L194,98L192,101L190,104L187,109L186,112L185,118L185,124L185,126L185,128L187,130L189,131L193,132L196,132L200,132L202,132L203,132L205,131L207,129L209,126L210,123L210,121L211,117L211,115L211,113L210,112L208,108L207,106L206,105L206,105L205,104L205,104L203,102L203,102L202,101L202,101" stroke-width="5" opacity="1"></path><path transform="matrix(0.9947,0,0,0.9954,343.3189,1.5417)" fill="none" stroke="#212b2c" d="M228,101L228,101L228,101L229,103L231,110L232,113L235,121L235,127L236,133L237,135L237,136L237,136L237,135L237,135L238,131L240,126L240,120L241,115L242,111L243,108L245,105L246,104L246,102L247,101L248,101L248,101L249,101L251,106L252,112L254,117L256,123L257,126L258,128L258,129L259,131L259,131L259,132L260,132L260,131L261,130L261,130L262,128L264,125L266,121L268,116L270,114L272,112L272,111L273,111" stroke-width="5" opacity="1"></path><path transform="matrix(0.9947,0,0,0.9954,343.7242,1.5074)" fill="none" stroke="#212b2c" d="M352,90L352,90L351,90L350,90L349,90L346,91L340,93L336,94L329,97L324,99L316,104L310,107L304,109L303,110L303,112L303,114L303,118L303,120L305,122L309,124L313,126L325,129L337,131L339,132L343,132L345,132L348,131L348,130L348,127L348,125" stroke-width="5" opacity="1"></path><path transform="matrix(0.9947,0,0,0.9954,344.0112,1.496)" fill="none" stroke="#212b2c" d="M369,69L369,69L369,70L369,72L369,76L369,82L369,86L369,93L368,115L366,132L364,141L363,145L363,146L363,147L363,148L363,148L363,147L363,146L363,143L363,138L364,135L365,132L367,128L370,122L373,118L375,116L377,116L380,115L383,114L388,113L390,113L392,113L393,113L396,113L398,114L400,116L400,118L401,121L401,127L401,133L401,137L401,137L401,138" stroke-width="5" opacity="1"></path><path transform="matrix(0.9947,0,0,0.9954,344.2797,1.5371)" fill="none" stroke="#212b2c" d="M436,98L435,97L434,98L434,98L430,99L425,103L422,105L418,109L416,112L414,116L414,119L414,123L417,127L420,130L423,131L429,131L432,131L436,131L437,130L438,127L438,122L438,117L438,112L438,106L438,104L437,102L435,100L435,100L435,99L435,100L436,101L437,103L438,106L441,112L443,116L446,123L448,129L451,136L452,137L452,137L452,138" stroke-width="5" opacity="1"></path><path transform="matrix(1,0,0,1,342,1)" fill="none" stroke="#212b2c" d="M465,85L465,85L465,86L465,87L465,91L465,96L465,102L465,110L465,115L465,123L465,127L465,133L465,138L465,138L465,139L466,139L466,139L466,139" stroke-width="5" opacity="1"></path><path transform="matrix(1,0,0,1,342,1)" fill="none" stroke="#212b2c" d="M494,90L494,91L494,91L492,93L490,95L488,96L486,99L483,103L481,105L478,107L477,108L476,110L475,110L475,110L475,111L474,111L472,111L472,111L471,111" stroke-width="5" opacity="1"></path><path transform="matrix(1,0,0,1,342,1)" fill="none" stroke="#212b2c" d="M522,88L522,89L522,89L522,90L522,94L521,101L519,105L516,112L513,118L510,138L509,141L508,144L508,146L508,146L508,146L508,146L508,146L509,145L512,144L517,142L520,141L522,140L522,140L523,139L523,139L524,138L525,138L526,137L527,137L527,137L527,136L528,136L528,135L528,135L528,134L528,133" stroke-width="5" opacity="1"></path><path transform="matrix(1,0,0,1,342,1)" fill="none" stroke="#212b2c" d="M529,109L528,109L527,109L526,109L523,110L517,111L511,114L503,115L498,116L492,116L486,117L484,118L482,119L482,119" stroke-width="5" opacity="1"></path><path transform="matrix(1.3541,0,0,1.4122,257.7387,-88.0584)" fill="none" stroke="#212b2c" d="M272,182L272,182L271,182L268,182L265,182L260,182L222,182L201,182L195,182L190,183L186,184L180,185L175,187L169,189L166,191L161,194L154,197L150,198L148,200L147,201L147,201L147,204L148,206L152,208L157,210L159,211L165,213L180,215L195,217L212,219L217,219L227,221L234,221L239,221L247,221L259,221L264,221L272,221L278,221L285,220L290,219L297,215L299,214L301,212L303,211L307,208L310,206L312,205L312,204L312,202L312,200L312,197L311,195L309,193L307,191L304,190L304,189L302,189L299,187L295,187L292,186L287,185L285,185L279,185L275,184L269,183L267,183L264,183L261,183L258,183L257,183" stroke-width="5" opacity="1"></path><path transform="matrix(1.3541,0,0,1.4122,267.5714,-83.1111)" fill="none" stroke="#212b2c" d="M223,284L224,284L224,284L224,282L224,279L223,273L223,266L223,257L222,255L222,252L220,250L220,249L220,249L219,248L219,248L219,247L219,246L220,245L220,243L221,242L221,242L222,239L222,237L222,234L222,234L222,233L222,232L222,231L222,230L222,228L222,227L222,227L222,227L222,226L223,226" stroke-width="5" opacity="1"></path><path transform="matrix(0.9947,0,0,0.9954,340.1846,-3.2766)" fill="none" stroke="#212b2c" d="M162,383L162,382L162,382L162,382L163,380L166,378L173,372L178,369L183,364L194,355L200,349L207,343L211,338L214,334L216,331L218,328L222,324L224,323L226,322L226,322L228,321L229,320L230,319L230,319L230,318L231,317L232,316L232,315L233,314L233,314L234,314L235,314L235,314L236,317L237,319L243,325L248,329L254,335L256,337L257,339L260,342L266,350L271,357L278,365L281,370L285,374L286,374L286,375L286,375L287,376L288,376L289,378L291,379L292,379L292,379L292,380L293,380L293,380L293,381L293,382L291,385L288,388L285,392L283,395L281,396L280,399L277,401L272,405L267,409L264,412L261,415L257,418L255,419L254,421L253,422L253,422L253,422L253,422L252,423L252,424L252,425L250,428L246,433L242,437L241,439L241,439L240,440L240,440L237,439L236,438L229,435L228,435L223,432L221,431L219,429L216,427L204,421L200,419L196,417L194,415L191,413L189,411L185,406L182,403L181,403L180,402L175,398L174,397L169,392L168,391L167,390L166,390L165,388L162,385L160,384L157,381L157,380" stroke-width="5" opacity="1"></path><path transform="matrix(0.9947,0,0,0.9954,340.669,-4.2583)" fill="none" stroke="#212b2c" d="M340,379L340,379L340,379L336,379L333,379L328,381L325,382L321,383L318,383L316,383L316,383L314,383L308,383L302,383L296,383L295,383L295,383L294,383" stroke-width="5" opacity="1"></path><path transform="matrix(0.9947,0,0,0.9954,339.2794,24)" fill="none" stroke="#212b2c" d="M250,467L249,467L248,467L247,465L246,464L245,463L244,459L244,455L243,438L238,415L236,408L236,408L236,408" stroke-width="5" opacity="1"></path><text transform="matrix(0.51,0,0,0.5562,455.5457,78.6366)" style="text-anchor: middle; font: normal normal normal 40px/normal normal normal normal 40px/normal;" x="195" y="191" text-anchor="middle" font-family="&quot;Arial&quot;" font-size="40px" stroke="none" fill="#000000" stroke-width="1" opacity="1" font="normal normal normal 40px/normal"><tspan dy="14.53846153846154">name: 이찬호</tspan></text><text transform="matrix(0.3286,0,0,0.3586,560.2319,139.8558)" style="text-anchor: middle; font: normal normal normal 40px/normal normal normal normal 40px/normal;" x="605" y="315" text-anchor="middle" font-family="&quot;Arial&quot;" font-size="40px" stroke="none" fill="#000000" stroke-width="1" opacity="1" font="normal normal normal 40px/normal"><tspan dy="14.53846153846154">완성</tspan></text><path transform="matrix(1,0,0,1,342,1)" fill="none" stroke="#212b2c" d="M537,134L537,134L537,134L535,134L532,134L528,134L525,135L523,135" stroke-width="5" opacity="1"></path><image transform="matrix(0.7758,0,0,0.7743,115.7962,101.5106)" preserveAspectRatio="none" x="10" y="10" width="460" height="472" xlink:href="https://www.mindtools.com/media/Diagrams/Flow-Charts-Figure-5.jpg" opacity="1" stroke-width="1"></image><path transform="matrix(1,0,0,1,0,0)" fill="none" stroke="#212b2c" d="M70,46L71,46L71,46L70,49L67,54L63,61L59,69L56,77L54,80L54,82" stroke-width="4"></path><path transform="matrix(1,0,0,1,0,0)" fill="none" stroke="#212b2c" d="M78,69L78,69L79,69L79,69L78,67L77,66L75,64L75,64L75,64L73,64L70,62" stroke-width="4"></path><path transform="matrix(1,0,0,1,0,0)" fill="none" stroke="#212b2c" d="M92,35L92,34L93,35L94,36L94,42L94,50L94,55L94,58L94,64L94,71L94,74L94,74" stroke-width="4"></path><path transform="matrix(1,0,0,1,0,0)" fill="none" stroke="#212b2c" d="M70,95L70,95L71,94L73,93L75,92L78,90L83,88L85,88L86,88L87,88L87,88L87,90L87,92L87,96L87,104L85,111L84,113L84,113L84,113L85,113L88,111L93,108L98,103L100,102L103,99L109,95L115,93L116,93" stroke-width="4"></path><path transform="matrix(1,0,0,1,0,0)" fill="none" stroke="#212b2c" d="M138,47L138,47L138,48L138,53L138,56L135,63L127,77L120,93L115,100L114,102L114,102" stroke-width="4"></path><path transform="matrix(1,0,0,1,0,0)" fill="none" stroke="#212b2c" d="M131,75L131,74L131,74L134,75L136,77L139,79L140,79L140,80L142,80L142,80L142,80" stroke-width="4"></path><path transform="matrix(1,0,0,1,0,0)" fill="none" stroke="#212b2c" d="M172,28L172,28L172,29L173,32L173,37L173,43L173,50L171,93L170,101L170,103L170,103L170,104L170,104L170,105" stroke-width="4"></path><path transform="matrix(1,0,0,1,0,0)" fill="none" stroke="#212b2c" d="M215,26L216,25L217,25L219,25L222,23L227,22L230,22L235,21L240,21L240,21L241,22L241,22L241,25L238,30L235,37L227,66L221,85L219,93L219,96L219,95" stroke-width="4"></path><path transform="matrix(1,0,0,1,0,0)" fill="none" stroke="#212b2c" d="M247,40L247,40L247,40L247,41L247,47L247,54L245,62L238,98L237,101L237,101" stroke-width="4"></path><path transform="matrix(1,0,0,1,0,0)" fill="none" stroke="#212b2c" d="M244,86L244,85L244,85L245,84L246,83L249,80L253,76L258,72L264,70L266,70" stroke-width="4"></path><path transform="matrix(1,0,0,1,0,0)" fill="none" stroke="#212b2c" d="M238,105L238,105L237,105L237,107L235,111L234,113L233,115L233,117L233,118L233,118L233,119L235,118L238,117L242,115L245,114L249,112L251,111L252,110L254,108L255,106L256,105L256,103" stroke-width="4"></path></svg>