<svg viewBox="0, 0, 988, 551" style="overflow: hidden; position: relative;" xmlns="http://www.w3.org/2000/svg" xmlns:xlink="http://www.w3.org/1999/xlink" width="100%" version="1.1" height="100%"><rect transform="matrix(1,0,0,1,0,0)" x="0" y="0" width="100%" height="100%" rx="0" ry="0" fill="white" stroke="none"></rect><path transform="matrix(1,0,0,1,0,0)" fill="none" stroke="#212b2c" d="M97,61L96,60L96,60L94,58L90,55L86,52L77,46L72,43L67,39L66,39L65,37L65,37L65,37L65,38L65,39L65,41L66,57L66,60L66,62L66,66L66,69L66,71L66,88L66,90L66,96L66,109L66,110L66,110L66,111L66,111" stroke-width="4" opacity="1"></path><path transform="matrix(1,0,0,1,0,0)" fill="none" stroke="#212b2c" d="M36,78L40,78L50,77L58,76L70,75L74,75L78,74L80,74L82,74L84,74L86,74L87,74L90,74L94,74L95,74L95,74L96,74L96,74L96,74" stroke-width="4" opacity="1"></path><path transform="matrix(1,0,0,1,0,0)" fill="none" stroke="#212b2c" d="M121,42L121,42L121,43L120,45L120,48L120,51L120,53L120,56L119,60L119,62L118,65L118,73L117,76L117,82L117,84L116,89L116,93L115,96L115,97L115,99L115,100L115,101L115,102" stroke-width="4" opacity="1"></path><path transform="matrix(1,0,0,1,0,0)" fill="none" stroke="#212b2c" d="M150,70L149,70L149,71L147,71L147,71L146,71L146,71L144,72L143,73L142,74L140,76L140,77L139,80L139,83L138,87L140,91L140,93L142,94L143,95L145,95L148,96L149,96L151,96L157,94L165,87L166,86L166,84L166,80L167,78L166,75L164,70L162,69L156,64L154,63L150,62L144,60" stroke-width="4" opacity="1"></path><path transform="matrix(1,0,0,1,0,0)" fill="none" stroke="#212b2c" d="M174,64L174,65L175,66L175,68L177,72L178,75L179,78L180,79L181,83L182,84L183,86L184,91L185,93L186,94L186,94L186,95L186,95L187,94L187,93L188,92L190,89L194,82L199,70L199,68L200,66L201,61L201,59L202,55L202,54L202,54L202,55L202,56L203,58L203,61L204,64L206,81L207,87L207,88L208,90L209,92L209,93L209,93L209,93L209,93L210,92L212,90L214,87L219,82L224,77L228,72L231,69L233,67L238,62L241,59L242,58L243,57L244,57L244,56L246,56" stroke-width="4" opacity="1"></path><path transform="matrix(1,0,0,1,0,0)" fill="none" stroke="#212b2c" d="M322,53L321,53L320,53L318,54L316,54L314,55L312,55L308,57L305,58L302,59L294,62L292,63L286,66L283,70L282,71L281,73L280,77L279,79L280,86L280,87L281,88L290,95L293,97L294,97L296,97L297,97L299,96L308,92" stroke-width="4" opacity="1"></path><path transform="matrix(1,0,0,1,0,0)" fill="none" stroke="#212b2c" d="M335,38L335,39L335,40L335,41L335,46L335,52L334,67L334,73L334,76L333,82L333,85L333,88L332,97L332,100L332,106L332,106L332,106L332,105L332,103L333,100L333,98L333,93L334,88L335,84L337,81L337,80L338,79L340,79L342,79L349,80L351,81L353,82L357,86L358,87L361,92L362,95L362,96L362,99L362,105L362,107L362,110L362,110" stroke-width="4" opacity="1"></path><path transform="matrix(1,0,0,1,0,0)" fill="none" stroke="#212b2c" d="M390,69L389,69L389,69L389,70L388,70L385,71L376,72L371,74L369,76L368,77L367,79L367,80L366,82L367,85L367,85L368,86L370,88L372,89L373,89L381,86L381,85L382,84L383,79L384,77L384,76L384,75L384,74L384,74L384,73L384,73L384,73L384,74L385,75L386,77L389,82L393,89L395,92L398,97L400,99L402,102L404,105L406,106L408,106L408,106L408,106L409,105L409,104L410,103" stroke-width="4" opacity="1"></path><path transform="matrix(1,0,0,1,0,0)" fill="none" stroke="#212b2c" d="M414,65L414,65L414,66L414,67L414,70L414,72L414,77L414,79L414,84L414,87L414,92L414,95L414,96L414,99L414,102L414,104L413,105L413,105L413,105L413,105" stroke-width="4" opacity="1"></path><path transform="matrix(1,0,0,1,0,0)" fill="none" stroke="#212b2c" d="M446,63L445,64L445,64L445,65L444,65L444,66L443,66L443,67L442,67L436,71L434,72L430,75L428,76L422,80L420,80L420,81L415,83L415,83" stroke-width="4" opacity="1"></path><path transform="matrix(1,0,0,1,0,0)" fill="none" stroke="#212b2c" d="M473,64L473,65L473,66L473,69L472,72L472,75L470,81L469,84L469,86L466,93L466,95L465,98L464,100L464,102L464,102L464,102L465,102L467,101L470,100L475,99L492,97L500,97L503,96L503,96L503,96L503,96" stroke-width="4" opacity="1"></path><path transform="matrix(1,0,0,1,0,0)" fill="none" stroke="#212b2c" d="M444,75L445,75L447,76L449,76L458,76L464,76L470,76L473,76L480,76L483,76L485,76L485,76L486,76L486,76" stroke-width="4" opacity="1"></path><path transform="matrix(1,0,0,1,0,0)" fill="none" stroke="#212b2c" d="M147,132L147,133L147,134L147,138L147,140L147,146L147,151L147,154L147,160L147,166L147,179L147,186L146,198L146,199L146,202L146,203L146,203L146,203L147,203L179,202L195,201L269,198L281,198L286,197L291,197L300,197L303,197L321,196L322,195L322,195L322,195L322,194L322,190L322,185L322,182L321,179L321,175L321,172L320,166L320,164L319,156L318,154L317,150L316,149L315,146L315,145L313,140L312,139L311,136L311,135L311,134L310,132L310,129L309,128L309,127L309,127L309,127L305,127L291,128L250,128L237,128L213,129L199,129L191,129L184,129L181,130L180,130L177,130L177,130L176,130L175,130L174,130L170,130L167,130L165,130L163,130L161,130L158,130L158,130L157,130L156,130L154,130L154,130L154,130" stroke-width="5" opacity="1"></path><path transform="matrix(1,0,0,1,0,0)" fill="none" stroke="#212b2c" d="M224,267L224,264L224,261L224,236L224,234L224,229L224,228L224,223L224,220L224,219L224,215L224,214L224,213L224,212L224,211L224,211L224,209L224,209L224,209L224,208L224,208L224,207L224,207L224,206L224,206L224,204L224,204L224,204L224,202L224,202L224,200L224,199L224,199L224,198L224,197L224,197L224,197L224,197L224,196L224,196" stroke-width="5" opacity="1"></path><path transform="matrix(1,0,0,1,0,0)" fill="none" stroke="#212b2c" d="M159,319L159,319L159,319L160,318L163,316L166,314L170,311L175,307L183,300L187,297L197,291L200,289L203,287L211,283L213,282L215,280L218,278L219,277L220,276L222,275L223,273L223,273L224,272L225,270L225,269L225,269L225,268L225,268L225,268L225,267L225,266L226,265L226,265L226,265L226,264L226,264L226,263L226,263L226,263L226,262L226,262L226,262" stroke-width="5" opacity="1"></path><path transform="matrix(1,0,0,1,193,-20)" fill="none" stroke="#212b2c" d="M283,316L279,312L272,306L263,299L255,294L252,292L246,287L241,284L229,275L226,273L223,270L222,269L222,269L222,268L222,268L222,268" stroke-width="5" opacity="1"></path><path transform="matrix(1,0,0,1,0,0)" fill="none" stroke="#212b2c" d="M221,353L221,352L222,352L222,352L222,352L224,351L226,350L230,347L235,344L257,333L265,328L272,325L280,320L286,317L287,316L289,314L291,312L291,312L291,312L291,312L291,312L290,312L288,312" stroke-width="5" opacity="1"></path><path transform="matrix(1,0,0,1,0,0)" fill="none" stroke="#212b2c" d="M217,354L217,354L216,354L214,352L211,349L206,346L202,345L200,343L195,342L183,335L181,333L180,332L177,330L176,329L174,327L173,326L172,325L172,325L171,324L170,323L169,323L168,322L167,321L166,320L165,320L164,319L163,319L162,318L162,317L162,317L162,317L163,318L167,321L169,323L177,330L181,332L188,338L191,340L198,344L199,345L202,346L206,348L206,348L207,348L207,348L207,349L207,349L208,349L208,349L208,349L208,349L208,349L208,349L209,349L210,349L210,349L210,349L210,349L211,349L212,349L212,349L213,350L215,350L215,350L216,350" stroke-width="5" opacity="1"></path><path transform="matrix(1,0,0,1,0,0)" fill="none" stroke="#212b2c" d="M399,317L399,317L398,317L396,317L393,317L381,316L375,316L371,316L368,316L365,316L359,316L356,316L347,316L343,316L341,316L336,316L332,316L330,316L326,316L324,316L320,316L318,316L316,316L312,316L309,316L308,316L305,316L302,316L301,315L299,315L297,315L296,315L296,315L295,315L285,315L283,315L283,315L282,315L282,315L282,315" stroke-width="5" opacity="1"></path><path transform="matrix(1,0,0,1,0,0)" fill="none" stroke="#212b2c" d="M225,423L225,422L224,419L223,416L220,409L219,406L218,403L218,401L217,398L217,396L217,393L217,387L217,385L216,379L216,375L216,373L216,372L216,369L216,362L216,361L216,360L216,360L216,360L216,359L216,357L216,356L216,356L216,355L216,355L216,355L216,355L216,355L216,353L216,353L216,352" stroke-width="5" opacity="1"></path><path transform="matrix(1,0,0,1,193,-20)" fill="none" stroke="#212b2c" d="M271,275L271,275L271,276L271,277L272,279L274,281L274,282L276,284L277,286L278,286L278,286L278,286L278,286L278,286L279,287L279,287L279,287L279,287" stroke-width="5" opacity="1"></path></svg>